<?xml version="1.0" standalone="no"?>
<svg xmlns="http://www.w3.org/2000/svg" height="200px" preserveAspectRatio="xMidYMid meet" viewBox="0 0 662 1920" width="200px" style="background-color: lightgrey">
  <!-- Background rectangle -->
  <rect width="100%" height="100%" fill="lightgrey" />
  <!-- Glass path -->
  <path d="m376 19043c-203-1835-320-3425-357-4853-20-770 0-1164 82-1580 235-1199 898-2058 1894-2454 600-238 1356-299 2042-165 622 121 1151 403 1579 840 150 154 262 292 368 452 331 503 527 1088 603 1802 15 142 18 251 17 670-3 1337-130 3204-360 5288l-17 157h-2917-2917zm5679-5c9-24 100-972 155-1598 129-1487 210-2920 210-3736 0-438-42-731-151-1059-351-1047-1321-1695-2674-1785-815-54-1608 116-2189 468-425 258-732 593-942 1027-80 164-126 290-174 481-72 278-82 378-87 824-11 892 71 2332 238 4180 36 399 106 1120 115 1173l6 37h2744c2187 0 2746-3 2749-12zm-2046-9212c-2-3-99-15-214-27-358-39-849-31-1170 18l-40 6 73-75c165-168 250-313 305-515l32-118 3-4132 2-4132-48-58c-164-196-341-332-582-447-327-155-602-189-1642-201-514-5-617-10-623-29-2-6-6-35-9-63l-5-53h3216 3216l-7 62c-4 35-9 65-12 67-6 7-433 17-804 19-644 5-1048 43-1276 123-130 44-336 150-439 224-113 81-233 191-308 282l-57 70 2 4149 3 4149 27 95c15 52 37 120 49 150 35 87 139 237 234 338 48 51 86 95 83 97-3 3-7 3-9 1z" transform="matrix(.1 0 0 -.1 0 1920)" fill="#000000" stroke="none" stroke-width="2" vector-effect="non-scaling-stroke"/>
</svg>
